
<svg version="1.0" xmlns="http://www.w3.org/2000/svg"
 width="256.000000pt" height="256.000000pt" viewBox="0 0 256.000000 256.000000"
 preserveAspectRatio="xMidYMid meet">

<g transform="translate(0.000000,256.000000) scale(0.100000,-0.100000)"
fill="#382AB1" stroke="none">
<path d="M575 2536 c-16 -7 -41 -24 -55 -37 -27 -25 -350 -546 -381 -614 -35
-77 -29 -104 96 -382 63 -141 115 -261 115 -265 0 -5 -75 -132 -167 -281 -220
-358 -215 -313 -69 -637 107 -235 128 -270 178 -296 35 -18 121 -18 156 0 15
8 105 95 200 195 l173 180 269 3 268 3 43 30 c43 30 72 75 335 509 113 187
113 187 4 430 -43 98 -82 186 -85 197 -6 18 1 19 174 19 219 0 266 9 320 58
25 23 108 148 217 327 177 288 178 291 182 356 6 98 -35 168 -120 204 -33 13
-146 15 -930 15 -721 -1 -899 -3 -923 -14z m671 -456 l141 -315 -535 -3 c-387
-1 -539 1 -548 9 -8 6 -14 21 -14 33 0 27 311 541 347 574 24 22 28 22 246 20
l222 -3 141 -315z m1130 295 c8 -11 13 -27 11 -36 -6 -22 -338 -562 -351 -571
-6 -4 -115 -8 -242 -8 l-231 0 -139 311 c-76 171 -141 315 -142 320 -2 6 213
8 538 7 528 -3 542 -3 556 -23z m-859 -900 l51 -115 -506 0 c-279 0 -523 -3
-542 -6 l-35 -6 -50 113 c-27 62 -51 117 -53 121 -2 4 241 8 540 8 l544 0 51
-115z m125 -292 c10 -9 18 -24 18 -33 0 -18 -335 -570 -354 -582 -6 -5 -114
-7 -240 -5 l-230 2 -128 285 c-70 157 -134 300 -143 318 l-15 32 537 0 c485 0
538 -2 555 -17z m-1092 -378 c56 -126 104 -233 107 -238 2 -4 -100 -6 -228 -5
l-233 3 -14 25 c-14 24 -9 35 119 246 74 122 137 216 141 210 3 -6 52 -114
108 -241z m-65 -517 c-59 -62 -111 -114 -114 -116 -6 -2 -101 205 -101 221 0
4 72 7 161 7 l161 0 -107 -112z"/>
</g>
</svg>
